<?xml version="1.0" encoding="UTF-8"?>
<svg version="1.1" xmlns="http://www.w3.org/2000/svg" width="200" height="200">
<path d="M0 0 C3.7232067 1.2410689 5.24140025 3.24140025 8 6 C8.928125 6.556875 9.85625 7.11375 10.8125 7.6875 C11.534375 8.120625 12.25625 8.55375 13 9 C13 9.66 13 10.32 13 11 C13.66 11 14.32 11 15 11 C19.13388871 14.77955539 21.8468194 19.19648893 24.04296875 24.30078125 C25.0244529 26.34329549 25.0244529 26.34329549 28 28 C28.04320247 30.33293334 28.04022391 32.6670134 28 35 C28.33515625 35.60199219 28.6703125 36.20398438 29.015625 36.82421875 C30.38568466 39.85248555 30.00283166 42.15121217 29.6875 45.4375 C29.58824219 46.54996094 29.48898438 47.66242188 29.38671875 48.80859375 C28.43980488 56.62302439 28.43980488 56.62302439 25.8125 58.875 C24.884375 59.57625 23.95625 60.2775 23 61 C22.02076783 62.14918155 21.06355821 63.31736634 20.125 64.5 C16.32432601 69.02970353 12.52144485 71.38153239 6.6875 72.8125 C-3.45845832 73.32839619 -9.96160489 71.54933605 -18 65 C-24.35619165 58.51693826 -26.28404034 51.67517037 -26.3125 42.625 C-26.09104766 30.10063963 -21.30975423 20.25501983 -12.5625 11.1875 C-9.45389857 8.25512314 -6.09217933 5.72132327 -2.6015625 3.26171875 C-0.85922143 2.0733081 -0.85922143 2.0733081 0 0 Z " fill="#0C212D" transform="translate(96,43)"/>
<path d="M0 0 C0.66 0.33 1.32 0.66 2 1 C2 11.23 2 21.46 2 32 C0.02 30.35 -1.96 28.7 -4 27 C-3.65066406 27.68707031 -3.30132812 28.37414062 -2.94140625 29.08203125 C-2.25884766 30.43361328 -2.25884766 30.43361328 -1.5625 31.8125 C-1.11003906 32.70582031 -0.65757813 33.59914062 -0.19140625 34.51953125 C1.78173968 38.62755638 2.11108177 41.66939564 2.0625 46.1875 C2.05347656 47.27417969 2.04445313 48.36085937 2.03515625 49.48046875 C2.02355469 50.31191406 2.01195313 51.14335938 2 52 C1.443125 51.278125 0.88625 50.55625 0.3125 49.8125 C-3.76197572 44.7209959 -3.76197572 44.7209959 -9 41 C-8.236875 41.845625 -7.47375 42.69125 -6.6875 43.5625 C-0.35269639 51.1893882 0.1895215 59.52392478 0 69 C-7.39945077 68.68512975 -12.75667224 65.4089445 -17.8359375 60.0703125 C-24.57780475 51.61831307 -24.69470495 42.46539398 -24 32 C-21.96234542 19.73702425 -12.86382082 9.14232732 -3.0625 2.0625 C-2.051875 1.381875 -1.04125 0.70125 0 0 Z " fill="#58A45A" transform="translate(94,46)"/>
<path d="M0 0 C1.32 0.66 2.64 1.32 4 2 C3.95875 3.0725 3.9175 4.145 3.875 5.25 C3.70579715 8.8044355 3.70579715 8.8044355 5.02734375 10.83203125 C6.38363888 13.8550987 6.00185597 16.16138057 5.6875 19.4375 C5.58824219 20.54996094 5.48898438 21.66242188 5.38671875 22.80859375 C4.43980488 30.62302439 4.43980488 30.62302439 1.8125 32.875 C0.4203125 33.926875 0.4203125 33.926875 -1 35 C-1.97923217 36.14918155 -2.93644179 37.31736634 -3.875 38.5 C-8.68907783 44.23749429 -13.55733057 46.0951701 -21 47 C-21.05800828 43.39590081 -21.09359869 39.79192149 -21.125 36.1875 C-21.14175781 35.16333984 -21.15851563 34.13917969 -21.17578125 33.08398438 C-21.18222656 32.10107422 -21.18867187 31.11816406 -21.1953125 30.10546875 C-21.20578613 29.19949951 -21.21625977 28.29353027 -21.22705078 27.36010742 C-21 25 -21 25 -19 22 C-18.34 22 -17.68 22 -17 22 C-16.7834375 21.45859375 -16.566875 20.9171875 -16.34375 20.359375 C-14.53500003 17.18354656 -12.08276201 14.79271919 -9.5 12.25 C-9.00113281 11.74339844 -8.50226563 11.23679687 -7.98828125 10.71484375 C-4.25341139 7 -4.25341139 7 -2 7 C-2 5.35 -2 3.7 -2 2 C-1.34 2 -0.68 2 0 2 C0 1.34 0 0.68 0 0 Z " fill="#2D475F" transform="translate(120,69)"/>
<path d="M0 0 C3.29982132 -0.65996426 4.8396861 -0.9387071 8 0 C15.14389851 6.4777472 20.03485005 14.34850054 21 24 C21.06913121 27.00226988 21.06004623 29.9976885 21 33 C13.5612256 32.68345641 8.31825176 29.35981651 3.12890625 24.10546875 C-0.52577068 19.66201262 -2.32410671 15.79210054 -2 10 C-1.50117001 6.61957926 -0.82216284 3.31583031 0 0 Z " fill="#2D8D55" transform="translate(73,82)"/>
<path d="M0 0 C0.66 0.33 1.32 0.66 2 1 C2 11.23 2 21.46 2 32 C1.01 31.34 0.02 30.68 -1 30 C-1 29.34 -1 28.68 -1 28 C-0.34 28 0.32 28 1 28 C1 27.01 1 26.02 1 25 C-0.794375 25.12375 -0.794375 25.12375 -2.625 25.25 C-7.0916788 25.28167857 -9.44719054 23.70690244 -13 21 C-13.66 21 -14.32 21 -15 21 C-16.32 23.64 -17.64 26.28 -19 29 C-19.66 29 -20.32 29 -21 29 C-21 30.32 -21 31.64 -21 33 C-21.66 33 -22.32 33 -23 33 C-23.99406377 25.24630257 -19.14875144 19.38452992 -14.75 13.4375 C-10.7283009 8.4081664 -5.8294403 2.91472015 0 0 Z " fill="#6CB359" transform="translate(94,46)"/>
<path d="M0 0 C1.464375 0.763125 2.92875 1.52625 4.4375 2.3125 C5.67306641 2.95638672 5.67306641 2.95638672 6.93359375 3.61328125 C9 5 9 5 10 8 C10.66 8 11.32 8 12 8 C16.78378606 12.264099 19.09842798 16.97835528 21 23 C20.01 23.33 19.02 23.66 18 24 C17.67 23.01 17.34 22.02 17 21 C16.34 20.67 15.68 20.34 15 20 C15 22.64 15 25.28 15 28 C13.02 28.99 13.02 28.99 11 30 C11 30.66 11 31.32 11 32 C10.34 32 9.68 32 9 32 C8.773125 32.5775 8.54625 33.155 8.3125 33.75 C6.66291738 36.57785592 4.60289641 38.04782769 2 40 C1.34 40.66 0.68 41.32 0 42 C0 35.73 0 29.46 0 23 C0.66 23 1.32 23 2 23 C2 27.29 2 31.58 2 36 C3.299375 34.906875 4.59875 33.81375 5.9375 32.6875 C6.66839844 32.07261719 7.39929688 31.45773438 8.15234375 30.82421875 C10.23820366 29.04024481 10.23820366 29.04024481 11 26 C10.34 26 9.68 26 9 26 C9 26.66 9 27.32 9 28 C7.68 27.67 6.36 27.34 5 27 C4.4375 25.0625 4.4375 25.0625 4 23 C4.33 22.67 4.66 22.34 5 22 C5.15215174 19.71187186 5.22186492 17.41800872 5.25 15.125 C5.27578125 13.86945312 5.3015625 12.61390625 5.328125 11.3203125 C5.32366864 7.68952965 5.32366864 7.68952965 2 5 C2 8.63 2 12.26 2 16 C1.34 16 0.68 16 0 16 C0 10.72 0 5.44 0 0 Z " fill="#08182D" transform="translate(99,46)"/>
<path d="M0 0 C-0.0721875 0.56847656 -0.144375 1.13695313 -0.21875 1.72265625 C-0.79583101 6.52364968 -1.10285838 11.16565627 -1 16 C-1.99 16.33 -2.98 16.66 -4 17 C-3.67 17.804375 -3.34 18.60875 -3 19.4375 C-3 24.51065528 -5.47448073 26.44605973 -8.82421875 30.046875 C-10.83098712 31.84828288 -12.53387744 32.9534288 -15 34 C-14.875 31.3125 -14.875 31.3125 -14 28 C-12.5161467 26.80646582 -11.02871241 25.61597869 -9.5 24.48046875 C-5.97559363 21.00195309 -5.10496087 15.71436086 -4.8125 10.9375 C-4.874375 10.298125 -4.93625 9.65875 -5 9 C-6.98 9.99 -6.98 9.99 -9 11 C-8.84660156 11.58007812 -8.69320312 12.16015625 -8.53515625 12.7578125 C-8.02379022 15.31886881 -7.73730998 17.39428444 -8 20 C-9.97483127 22.55900911 -12.28463618 24.27327238 -15 26 C-15.1875 23.625 -15.1875 23.625 -15 21 C-14.01 20.34 -13.02 19.68 -12 19 C-12.99 18.01 -13.98 17.02 -15 16 C-15 16.99 -15 17.98 -15 19 C-15.66 19 -16.32 19 -17 19 C-17 24.94 -17 30.88 -17 37 C-18.32 37 -19.64 37 -21 37 C-21.14584064 33.77131254 -21.23424106 30.54347635 -21.3125 27.3125 C-21.35439453 26.40048828 -21.39628906 25.48847656 -21.43945312 24.54882812 C-21.52522421 19.83141829 -21.54639899 17.71753864 -18.60546875 13.85546875 C-16 12 -16 12 -14 12 C-13.773125 11.443125 -13.54625 10.88625 -13.3125 10.3125 C-11.63281165 7.3530491 -9.45866715 5.33873216 -7 3 C-6.484375 2.401875 -5.96875 1.80375 -5.4375 1.1875 C-4 0 -4 0 0 0 Z " fill="#081835" transform="translate(122,77)"/>
<path d="M0 0 C2.125 2.4375 2.125 2.4375 3 5 C2.67 5.66 2.34 6.32 2 7 C-1.02419525 6.41196203 -4.01758453 5.77321882 -7 5 C-7.33 5.66 -7.66 6.32 -8 7 C-6.741875 7.268125 -5.48375 7.53625 -4.1875 7.8125 C-1.84106284 8.41991104 -0.04546721 8.97382191 2.0625 10.1875 C3.6392835 13.2359481 2.76280655 15.77274152 2 19 C0 21 0 21 -2.49609375 21.265625 C-3.95208984 21.25789063 -3.95208984 21.25789063 -5.4375 21.25 C-6.88962891 21.25773437 -6.88962891 21.25773437 -8.37109375 21.265625 C-11 21 -11 21 -14 19 C-14.1875 16.375 -14.1875 16.375 -14 14 C-12.1875 13.3125 -12.1875 13.3125 -10 13 C-8.97895449 13.97850195 -7.9793879 14.97980427 -7 16 C-5.68 16 -4.36 16 -3 16 C-3.80353553 13.86054904 -3.80353553 13.86054904 -5.77734375 13.21875 C-6.49019531 12.9815625 -7.20304688 12.744375 -7.9375 12.5 C-10.70455204 11.57597536 -11.89137369 11.10862631 -14 9 C-14.55979644 3.73791349 -14.55979644 3.73791349 -12.625 1.1875 C-8.59093911 -1.76046757 -4.69654469 -1.27931473 0 0 Z " fill="#55D4A5" transform="translate(142,123)"/>
<path d="M0 0 C2.08406231 1.54374986 2.80539634 2.82421495 3.6875 5.25 C3.6875 6.24 3.6875 7.23 3.6875 8.25 C1.7075 8.25 -0.2725 8.25 -2.3125 8.25 C-2.3125 7.26 -2.3125 6.27 -2.3125 5.25 C-4.68555578 4.83219121 -4.68555578 4.83219121 -7.3125 5.25 C-9.41012034 7.35700447 -9.41012034 7.35700447 -10.3125 10.25 C-9.61764736 13.03223378 -9.61764736 13.03223378 -8.3125 15.25 C-6.6625 15.25 -5.0125 15.25 -3.3125 15.25 C-2.9825 14.59 -2.6525 13.93 -2.3125 13.25 C-0.3325 13.25 1.6475 13.25 3.6875 13.25 C3.08460388 16.62621824 2.06473717 18.7593155 -0.3125 21.25 C-2.90625 21.74609375 -2.90625 21.74609375 -5.8125 21.6875 C-6.7715625 21.68621094 -7.730625 21.68492187 -8.71875 21.68359375 C-11.66527138 21.19102768 -12.50742762 20.56507696 -14.3125 18.25 C-16.8796837 14.60189685 -16.86818789 10.55016937 -16.3125 6.25 C-15.06261855 3.37527265 -14.05781416 1.80898562 -11.5625 -0.0625 C-7.63213575 -1.26344463 -3.91040118 -1.26823822 0 0 Z " fill="#020302" transform="translate(56.3125,122.75)"/>
<path d="M0 0 C3.3053706 -0.66107412 4.83756798 -0.95341855 8 0 C13.11141253 4.78739272 18.8455958 10.98549076 19.125 18.25 C19.08375 19.1575 19.0425 20.065 19 21 C16.4345406 18.4345406 16.45953913 16.52313332 16 13 C14.35 13.33 12.7 13.66 11 14 C11 12.68 11 11.36 11 10 C10.34 10 9.68 10 9 10 C8.34 11.65 7.68 13.3 7 15 C5.68 15 4.36 15 3 15 C2.67 16.65 2.34 18.3 2 20 C-1 18 -1 18 -1.8125 14.5 C-2.29156522 9.48824082 -1.20142933 4.84543401 0 0 Z " fill="#3D9256" transform="translate(73,82)"/>
<path d="M0 0 C2.375 0.56640625 2.375 0.56640625 4.1640625 2.31640625 C5.50713749 4.81192622 5.77858321 6.31345973 5.75 9.12890625 C5.75773437 9.89332031 5.76546875 10.65773437 5.7734375 11.4453125 C5.26753812 14.13848275 4.61267628 14.99807855 2.375 16.56640625 C-1.01751293 17.23598117 -4.22341098 17.17342382 -7.625 16.56640625 C-10.26506279 13.92634346 -10.54232815 12.22778102 -11 8.56640625 C-10.0401437 0.88755587 -7.17074113 0.01067075 0 0 Z M-4.625 4.56640625 C-4.625 5.22640625 -4.625 5.88640625 -4.625 6.56640625 C-2.975 6.56640625 -1.325 6.56640625 0.375 6.56640625 C0.045 5.90640625 -0.285 5.24640625 -0.625 4.56640625 C-1.945 4.56640625 -3.265 4.56640625 -4.625 4.56640625 Z M-4.625 9.56640625 C-4.295 10.55640625 -3.965 11.54640625 -3.625 12.56640625 C-2.635 12.56640625 -1.645 12.56640625 -0.625 12.56640625 C-0.295 11.57640625 0.035 10.58640625 0.375 9.56640625 C-1.275 9.56640625 -2.925 9.56640625 -4.625 9.56640625 Z " fill="#020302" transform="translate(79.625,127.43359375)"/>
<path d="M0 0 C1.62463842 -0.05395478 3.24978541 -0.09277195 4.875 -0.125 C6.23238281 -0.15980469 6.23238281 -0.15980469 7.6171875 -0.1953125 C10 0 10 0 12 2 C12.1953125 5.2578125 12.1953125 5.2578125 12.125 9.125 C12.10695313 10.40632812 12.08890625 11.68765625 12.0703125 13.0078125 C12.04710938 13.99523437 12.02390625 14.98265625 12 16 C9.87527424 16.05386629 7.75016348 16.09273071 5.625 16.125 C4.44164063 16.14820313 3.25828125 16.17140625 2.0390625 16.1953125 C-1 16 -1 16 -3 14 C-3.375 11.5625 -3.375 11.5625 -3 9 C-1 7.1875 -1 7.1875 1 6 C0.01 5.67 -0.98 5.34 -2 5 C-1.34 3.35 -0.68 1.7 0 0 Z M5 4 C5 4.66 5 5.32 5 6 C5.66 6 6.32 6 7 6 C7 5.34 7 4.68 7 4 C6.34 4 5.68 4 5 4 Z M5 9 C5 9.66 5 10.32 5 11 C5.66 11 6.32 11 7 11 C7 10.34 7 9.68 7 9 C6.34 9 5.68 9 5 9 Z " fill="#030403" transform="translate(89,128)"/>
<path d="M0 0 C4.62 0 9.24 0 14 0 C16.05279359 4.10558718 16.2216942 5.80206685 16.125 10.25 C16.10695313 11.32765625 16.08890625 12.4053125 16.0703125 13.515625 C16.04710938 14.33546875 16.02390625 15.1553125 16 16 C14.35 16 12.7 16 11 16 C10.67 12.37 10.34 8.74 10 5 C9.01 5 8.02 5 7 5 C6.67 8.63 6.34 12.26 6 16 C4.02 16 2.04 16 0 16 C0 10.72 0 5.44 0 0 Z " fill="#020403" transform="translate(103,128)"/>
<path d="M0 0 C1.2065625 0.0309375 1.2065625 0.0309375 2.4375 0.0625 C3.66854155 3.74650584 3.34517252 6.97724976 3 10.8125 C2.89816406 11.98296875 2.79632813 13.1534375 2.69140625 14.359375 C2.60761719 15.25140625 2.52382812 16.1434375 2.4375 17.0625 C5.0775 17.0625 7.7175 17.0625 10.4375 17.0625 C10.7675 18.7125 11.0975 20.3625 11.4375 22.0625 C8.02806336 23.05233644 5.22339955 23.01544328 1.74609375 22.58984375 C0.53457642 22.44470337 0.53457642 22.44470337 -0.70141602 22.29663086 C-1.62265259 22.18073608 -1.62265259 22.18073608 -2.5625 22.0625 C-2.75840444 18.58375243 -2.94281592 15.10449096 -3.125 11.625 C-3.18107422 10.63177734 -3.23714844 9.63855469 -3.29492188 8.61523438 C-3.34326172 7.67099609 -3.39160156 6.72675781 -3.44140625 5.75390625 C-3.4885376 4.87935791 -3.53566895 4.00480957 -3.58422852 3.10375977 C-3.55125745 0.00633198 -3.09867193 0.07557736 0 0 Z " fill="#5AD7A5" transform="translate(149.5625,121.9375)"/>
<path d="M0 0 C1.32 0 2.64 0 4 0 C8.71878407 6.60629769 6.70925689 14.18380801 5.58984375 21.78515625 C4.72220108 25.04312574 2.66180259 25.98886026 0 28 C-1.54791221 29.79795956 -3.0217543 31.63479019 -4.47265625 33.51171875 C-6.26440514 35.25764286 -7.56166134 35.60671957 -10 36 C-10 35.01 -10 34.02 -10 33 C-8.5390625 31.5703125 -8.5390625 31.5703125 -6.625 30.125 C-3.60734959 27.66210956 -1.92419164 25.90214248 -1 22 C-1 20.68 -1 19.36 -1 18 C-0.34 17.67 0.32 17.34 1 17 C0.97679688 16.26394531 0.95359375 15.52789062 0.9296875 14.76953125 C0.91164063 13.79371094 0.89359375 12.81789063 0.875 11.8125 C0.85179688 10.84957031 0.82859375 9.88664062 0.8046875 8.89453125 C1.0086456 5.87187222 1.73125368 3.73230015 3 1 C2.01 0.67 1.02 0.34 0 0 Z " fill="#23395E" transform="translate(119,76)"/>
<path d="M0 0 C3.875 0.875 3.875 0.875 5 2 C6.34747084 2.23075082 7.70377565 2.41153063 9.0625 2.5625 C10.361875 2.706875 11.66125 2.85125 13 3 C13 3.99 13 4.98 13 6 C10 7 10 7 9 7 C9.27714844 7.54269531 9.55429688 8.08539063 9.83984375 8.64453125 C10.20207031 9.35996094 10.56429687 10.07539062 10.9375 10.8125 C11.29714844 11.52019531 11.65679687 12.22789063 12.02734375 12.95703125 C13.89011983 16.86960913 14.10861564 19.89874552 14.0625 24.1875 C14.05347656 25.27417969 14.04445313 26.36085938 14.03515625 27.48046875 C14.02355469 28.31191406 14.01195313 29.14335938 14 30 C13.1646875 28.9171875 13.1646875 28.9171875 12.3125 27.8125 C10.03615962 24.95119715 10.03615962 24.95119715 7.375 22.375 C5 20 5 20 3 17 C3.99 16.67 4.98 16.34 6 16 C6 14.68 6 13.36 6 12 C6.66 12 7.32 12 8 12 C7.67 11.4225 7.34 10.845 7 10.25 C6 8 6 8 6 4 C4.35 4 2.7 4 1 4 C0.67 2.68 0.34 1.36 0 0 Z " fill="#59A156" transform="translate(82,68)"/>
<path d="M0 0 C1.65 0 3.3 0 5 0 C5.91160286 7.35793733 6.11459026 14.58982977 6 22 C4.02 22 2.04 22 0 22 C0 14.74 0 7.48 0 0 Z " fill="#030504" transform="translate(62,122)"/>
<path d="M0 0 C6.56505012 2.67465005 9.82752273 8.00754294 13 14 C13.33 11.36 13.66 8.72 14 6 C14.33 6 14.66 6 15 6 C15 13.59 15 21.18 15 29 C13.68 29 12.36 29 11 29 C10.85304688 27.87722656 10.70609375 26.75445312 10.5546875 25.59765625 C9.27418943 16.75363023 7.90728699 10.00976116 2 3 C1.34 2.01 0.68 1.02 0 0 Z " fill="#071929" transform="translate(83,85)"/>
<path d="M0 0 C0.66 0 1.32 0 2 0 C2 0.66 2 1.32 2 2 C3.65 2 5.3 2 7 2 C7.66 3.98 8.32 5.96 9 8 C8.01 8.33 7.02 8.66 6 9 C5.67 8.01 5.34 7.02 5 6 C4.34 5.67 3.68 5.34 3 5 C3 7.64 3 10.28 3 13 C1.02 13.99 1.02 13.99 -1 15 C-1 15.66 -1 16.32 -1 17 C-1.66 17 -2.32 17 -3 17 C-3.226875 17.5775 -3.45375 18.155 -3.6875 18.75 C-5.33708262 21.57785592 -7.39710359 23.04782769 -10 25 C-10.66 25.66 -11.32 26.32 -12 27 C-12 20.73 -12 14.46 -12 8 C-11.34 8 -10.68 8 -10 8 C-10 12.29 -10 16.58 -10 21 C-8.72125 19.906875 -7.4425 18.81375 -6.125 17.6875 C-5.40570313 17.07261719 -4.68640625 16.45773438 -3.9453125 15.82421875 C-1.39816631 13.43562985 -0.06074373 11.83947834 0.1953125 8.30078125 C0.17210938 7.31464844 0.14890625 6.32851562 0.125 5.3125 C0.09792969 3.82169922 0.09792969 3.82169922 0.0703125 2.30078125 C0.04710938 1.54152344 0.02390625 0.78226563 0 0 Z " fill="#253D64" transform="translate(111,61)"/>
<path d="M0 0 C1.32 0.66 2.64 1.32 4 2 C4 3.65 4 5.3 4 7 C3.0925 7.226875 2.185 7.45375 1.25 7.6875 C-2.53488095 9.21600961 -3.61116058 10.76350788 -6 14 C-7.65002828 15.35386936 -9.3174387 16.68678142 -11 18 C-12.68662458 19.64646685 -14.35511706 21.31183067 -16 23 C-16.53343018 23.44448486 -17.06686035 23.88896973 -17.61645508 24.34692383 C-19.47206056 26.56402365 -19.42485886 28.0203423 -19.51171875 30.88671875 C-19.54716797 31.82451172 -19.58261719 32.76230469 -19.61914062 33.72851562 C-19.64169922 34.70498047 -19.66425781 35.68144531 -19.6875 36.6875 C-19.72166016 37.67556641 -19.75582031 38.66363281 -19.79101562 39.68164062 C-19.87350538 42.12098053 -19.94265068 44.55996063 -20 47 C-20.33 47 -20.66 47 -21 47 C-21.05800828 43.39590081 -21.09359869 39.79192149 -21.125 36.1875 C-21.14175781 35.16333984 -21.15851563 34.13917969 -21.17578125 33.08398438 C-21.18222656 32.10107422 -21.18867187 31.11816406 -21.1953125 30.10546875 C-21.20578613 29.19949951 -21.21625977 28.29353027 -21.22705078 27.36010742 C-21 25 -21 25 -19 22 C-18.34 22 -17.68 22 -17 22 C-16.7834375 21.45859375 -16.566875 20.9171875 -16.34375 20.359375 C-14.53500003 17.18354656 -12.08276201 14.79271919 -9.5 12.25 C-9.00113281 11.74339844 -8.50226563 11.23679687 -7.98828125 10.71484375 C-4.25341139 7 -4.25341139 7 -2 7 C-2 5.35 -2 3.7 -2 2 C-1.34 2 -0.68 2 0 2 C0 1.34 0 0.68 0 0 Z " fill="#4C7E63" transform="translate(120,69)"/>
<path d="M0 0 C6.875 3.75 6.875 3.75 8 6 C8.07194869 8.88370333 8.09291708 11.74239664 8.0625 14.625 C8.05798828 15.42679688 8.05347656 16.22859375 8.04882812 17.0546875 C8.03703168 19.03649006 8.01909605 21.01825433 8 23 C7.34 23 6.68 23 6 23 C6 23.99 6 24.98 6 26 C6.99 26 7.98 26 9 26 C9 26.66 9 27.32 9 28 C7.68 27.67 6.36 27.34 5 27 C4.4375 25.0625 4.4375 25.0625 4 23 C4.33 22.67 4.66 22.34 5 22 C5.15215174 19.71187186 5.22186492 17.41800872 5.25 15.125 C5.27578125 13.86945312 5.3015625 12.61390625 5.328125 11.3203125 C5.32366864 7.68952965 5.32366864 7.68952965 2 5 C2 8.63 2 12.26 2 16 C1.34 16 0.68 16 0 16 C0 10.72 0 5.44 0 0 Z " fill="#679971" transform="translate(99,46)"/>
<path d="M0 0 C2.125 2.4375 2.125 2.4375 3 5 C2.67 5.66 2.34 6.32 2 7 C0.35 6.67 -1.3 6.34 -3 6 C-3.33 5.01 -3.66 4.02 -4 3 C-5.65 3.33 -7.3 3.66 -9 4 C-9 3.34 -9 2.68 -9 2 C-9.99 2 -10.98 2 -12 2 C-12 4.64 -12 7.28 -12 10 C-12.66 9.67 -13.32 9.34 -14 9 C-14.36768802 3.48467967 -14.36768802 3.48467967 -12.625 1.1875 C-8.59093911 -1.76046757 -4.69654469 -1.27931473 0 0 Z " fill="#5CD4A7" transform="translate(142,123)"/>
<path d="M0 0 C0.99 0.33 1.98 0.66 3 1 C3 6.94 3 12.88 3 19 C2.67 19 2.34 19 2 19 C1.67 24.61 1.34 30.22 1 36 C0.01 36 -0.98 36 -2 36 C-1.67 35.34 -1.34 34.68 -1 34 C-0.92599943 31.62606172 -0.91658513 29.24999928 -0.9375 26.875 C-0.94128662 26.1722998 -0.94507324 25.46959961 -0.94897461 24.74560547 C-0.96120881 22.49700866 -0.97983804 20.24853888 -1 18 C-1.02652644 15.04167011 -1.04655813 12.08340374 -1.0625 9.125 C-1.07410156 7.80757812 -1.08570312 6.49015625 -1.09765625 5.1328125 C-1 2 -1 2 0 0 Z " fill="#15322A" transform="translate(96,43)"/>
<path d="M0 0 C0.33 0 0.66 0 1 0 C1.8465514 15.42412813 2.05362231 30.58469516 1 46 C-0.65 46 -2.3 46 -4 46 C-2.02 45.505 -2.02 45.505 0 45 C-0.495 37.575 -0.495 37.575 -1 30 C-1.66 30.33 -2.32 30.66 -3 31 C-2.85904936 29.3745692 -2.71207913 27.74965949 -2.5625 26.125 C-2.48128906 25.22007813 -2.40007812 24.31515625 -2.31640625 23.3828125 C-2 21 -2 21 -1 19 C-0.84932786 17.5534758 -0.75138964 16.1012066 -0.68359375 14.6484375 C-0.64169922 13.79765625 -0.59980469 12.946875 -0.55664062 12.0703125 C-0.51732422 11.18085937 -0.47800781 10.29140625 -0.4375 9.375 C-0.39431641 8.4778125 -0.35113281 7.580625 -0.30664062 6.65625 C-0.20043139 4.43765717 -0.09838806 2.2189512 0 0 Z " fill="#112C38" transform="translate(98,69)"/>
<path d="M0 0 C0.33 2.64 0.66 5.28 1 8 C-1.0625 8.875 -1.0625 8.875 -4 9 C-6.59005725 7.26080867 -8.79124879 5.19602066 -11 3 C-10.07380859 2.54173828 -10.07380859 2.54173828 -9.12890625 2.07421875 C-7.71155529 1.35904166 -6.31331931 0.60463839 -4.9375 -0.1875 C-3 -1 -3 -1 0 0 Z " fill="#208852" transform="translate(92,104)"/>
<path d="M0 0 C0.99 0 1.98 0 3 0 C4.54915835 4.36580989 3.60393561 7.64570462 2.09375 11.84765625 C0.36136746 15.2567376 -1.88882022 16.81555462 -5 19 C-5.66 19.66 -6.32 20.32 -7 21 C-6.68405443 17.31396835 -6.15046212 16.14679231 -3.4375 13.5 C-0.78294139 11.26675481 -0.78294139 11.26675481 -0.625 8.4375 C-0.94473738 6.02045152 -0.94473738 6.02045152 -1.625 3.8125 C-1.74875 3.214375 -1.8725 2.61625 -2 2 C-1.34 1.34 -0.68 0.68 0 0 Z " fill="#273C67" transform="translate(114,86)"/>
<path d="M0 0 C-0.33 1.65 -0.66 3.3 -1 5 C-1.94875 5.309375 -2.8975 5.61875 -3.875 5.9375 C-6.86080408 6.87394742 -6.86080408 6.87394742 -9 8 C-9.33 8.99 -9.66 9.98 -10 11 C-12.5625 12.1875 -12.5625 12.1875 -15 13 C-15 14.98 -15 16.96 -15 19 C-15.66 19 -16.32 19 -17 19 C-17.33 18.34 -17.66 17.68 -18 17 C-18.66 16.67 -19.32 16.34 -20 16 C-18.71034824 14.62437146 -17.37310707 13.29233607 -16 12 C-15.34 12 -14.68 12 -14 12 C-13.773125 11.443125 -13.54625 10.88625 -13.3125 10.3125 C-11.63281165 7.3530491 -9.45866715 5.33873216 -7 3 C-6.484375 2.401875 -5.96875 1.80375 -5.4375 1.1875 C-4 0 -4 0 0 0 Z " fill="#071E26" transform="translate(122,77)"/>
<path d="M0 0 C0.66 0.33 1.32 0.66 2 1 C1.67 1.99 1.34 2.98 1 4 C0.34 4 -0.32 4 -1 4 C-1.12375 5.0725 -1.2475 6.145 -1.375 7.25 C-1.89643936 10.37863615 -2.40088254 12.33480424 -4 15 C-4.66 15 -5.32 15 -6 15 C-6 16.32 -6 17.64 -6 19 C-6.66 19 -7.32 19 -8 19 C-8.96322127 11.48687411 -4.39099442 5.69155289 0 0 Z " fill="#71A867" transform="translate(79,60)"/>
<path d="M0 0 C3.34373475 0.55728913 6.03312999 1.35173889 9 3 C9.66 2.34 10.32 1.68 11 1 C11 4.96 11 8.92 11 13 C10.443125 12.278125 9.88625 11.55625 9.3125 10.8125 C7.03615962 7.95119715 7.03615962 7.95119715 4.375 5.375 C2 3 2 3 0 0 Z " fill="#4B9256" transform="translate(85,85)"/>
<path d="M0 0 C0.33 0 0.66 0 1 0 C2.03590199 5.05002222 2.10251672 9.87416389 2 15 C-4.67353409 14.71601983 -8.71077185 11.92194468 -14 8 C-13.67 7.34 -13.34 6.68 -13 6 C-7.34977578 8.6367713 -7.34977578 8.6367713 -5.375 10.6875 C-3.83457352 12.46031716 -3.83457352 12.46031716 0 12 C0 8.04 0 4.08 0 0 Z " fill="#32795A" transform="translate(92,100)"/>
<path d="M0 0 C0.33 0.99 0.66 1.98 1 3 C-0.28548409 4.33929505 -1.57858155 5.67128643 -2.875 7 C-3.59429687 7.7425 -4.31359375 8.485 -5.0546875 9.25 C-7 11 -7 11 -9 11 C-9.25 5.375 -9.25 5.375 -7 2 C-5.35 2.33 -3.7 2.66 -2 3 C-2 2.34 -2 1.68 -2 1 C-1.34 0.67 -0.68 0.34 0 0 Z " fill="#081936" transform="translate(110,71)"/>
<path d="M0 0 C3 1 3 1 4 3 C4.66 3 5.32 3 6 3 C6 3.66 6 4.32 6 5 C5.34 5 4.68 5 4 5 C4 6.65 4 8.3 4 10 C3.67 8.68 3.34 7.36 3 6 C2.34 6 1.68 6 1 6 C0.896875 6.5775 0.79375 7.155 0.6875 7.75 C-0.11649921 10.38127015 -1.13067515 11.98688093 -3 14 C-3.99 14 -4.98 14 -6 14 C-6 13.34 -6 12.68 -6 12 C-5.34 12 -4.68 12 -4 12 C-4 11.34 -4 10.68 -4 10 C-3.01 9.34 -2.02 8.68 -1 8 C-0.42251197 6.03638136 -0.42251197 6.03638136 -0.3125 3.875 C-0.209375 2.59625 -0.10625 1.3175 0 0 Z " fill="#132741" transform="translate(114,66)"/>
<path d="M0 0 C0.66 0.33 1.32 0.66 2 1 C2 11.23 2 21.46 2 32 C1.01 31.34 0.02 30.68 -1 30 C-1 29.34 -1 28.68 -1 28 C-0.34 28 0.32 28 1 28 C1 19.42 1 10.84 1 2 C-0.32 2.99 -1.64 3.98 -3 5 C-3.66 4.67 -4.32 4.34 -5 4 C-3.35 2.68 -1.7 1.36 0 0 Z " fill="#74A86E" transform="translate(94,46)"/>
<path d="M0 0 C5.03909782 2.05296578 9.283108 6.32090822 12 11 C11.6875 13.25 11.6875 13.25 11 15 C10.34 15 9.68 15 9 15 C8.443125 13.824375 7.88625 12.64875 7.3125 11.4375 C5.24872155 7.28775193 2.77796448 3.70395264 0 0 Z " fill="#072428" transform="translate(83,85)"/>
<path d="M0 0 C2 0 2 0 3.5078125 1.4609375 C4.04148437 2.09257813 4.57515625 2.72421875 5.125 3.375 C5.66382812 4.00148438 6.20265625 4.62796875 6.7578125 5.2734375 C8 7 8 7 8 9 C6.35 9.33 4.7 9.66 3 10 C3 9.01 3 8.02 3 7 C2.505 6.525625 2.01 6.05125 1.5 5.5625 C0 4 0 4 0 0 Z " fill="#1B2F42" transform="translate(109,54)"/>
<path d="M0 0 C0.99 0 1.98 0 3 0 C4.35439668 2.70879335 4.06501451 5.00933268 4 8 C2.68 8 1.36 8 0 8 C0 5.36 0 2.72 0 0 Z M-5 8 C-3.35 8 -1.7 8 0 8 C-0.33 8.66 -0.66 9.32 -1 10 C-2.32 10 -3.64 10 -5 10 C-5 9.34 -5 8.68 -5 8 Z " fill="#48E4A6" transform="translate(139,133)"/>
<path d="M0 0 C0.33 0 0.66 0 1 0 C1 5.61 1 11.22 1 17 C0.34 16.67 -0.32 16.34 -1 16 C-1.484375 13.671875 -1.484375 13.671875 -1.75 10.75 C-1.84796875 9.79609375 -1.9459375 8.8421875 -2.046875 7.859375 C-1.99635887 4.77789104 -1.31181571 2.76490387 0 0 Z " fill="#0C1D3E" transform="translate(104,96)"/>
<path d="M0 0 C4.875 3.625 4.875 3.625 6 7 C6.66 7.33 7.32 7.66 8 8 C8 11.3 8 14.6 8 18 C6.09976318 14.19952636 4.54227962 10.38959153 3 6.4375 C2.09421867 4.229658 1.09797631 2.11752575 0 0 Z " fill="#06261D" transform="translate(89,72)"/>
<path d="M0 0 C0.66 0 1.32 0 2 0 C2.33 6.93 2.66 13.86 3 21 C1.68 21 0.36 21 -1 21 C-1 20.01 -1 19.02 -1 18 C-0.34 18 0.32 18 1 18 C0.67 12.06 0.34 6.12 0 0 Z " fill="#1C482A" transform="translate(106,51)"/>
<path d="M0 0 C0.99 0 1.98 0 3 0 C2.95875 0.94875 2.9175 1.8975 2.875 2.875 C2.65026182 6.10244856 2.65026182 6.10244856 5 8 C3.35 8 1.7 8 0 8 C-1.125 2.25 -1.125 2.25 0 0 Z " fill="#4DE1A7" transform="translate(130,125)"/>
<path d="M0 0 C8.81548975 5.96583144 8.81548975 5.96583144 10 11 C8.53515625 9.73046875 7.0703125 8.4609375 5.60546875 7.19140625 C3.89287029 5.79128769 3.89287029 5.79128769 1 5 C0.67 3.35 0.34 1.7 0 0 Z " fill="#4A9061" transform="translate(79,83)"/>
<path d="M0 0 C0.66 0 1.32 0 2 0 C1.72482232 4.67802059 -0.33193886 6.74638753 -3.52734375 9.86328125 C-5 11 -5 11 -7 11 C-7 10.01 -7 9.02 -7 8 C-6.401875 7.79375 -5.80375 7.5875 -5.1875 7.375 C-2.18981233 5.49073918 -1.38638224 3.18867916 0 0 Z " fill="#041821" transform="translate(115,72)"/>
<path d="M0 0 C2.67576692 1.00617682 3.7785108 1.54214546 5.046875 4.1640625 C5.27890625 4.97617188 5.5109375 5.78828125 5.75 6.625 C5.99234375 7.44226563 6.2346875 8.25953125 6.484375 9.1015625 C6.73960938 10.04128906 6.73960938 10.04128906 7 11 C6.01 10.67 5.02 10.34 4 10 C4 8.68 4 7.36 4 6 C3.34 6 2.68 6 2 6 C1.34 4.02 0.68 2.04 0 0 Z " fill="#5B9560" transform="translate(88,74)"/>
<path d="M0 0 C1.32 0.66 2.64 1.32 4 2 C4 3.65 4 5.3 4 7 C2.35 7 0.7 7 -1 7 C-0.67 4.69 -0.34 2.38 0 0 Z " fill="#4F7E4F" transform="translate(120,69)"/>
<path d="M0 0 C1.65 0 3.3 0 5 0 C5 1.98 5 3.96 5 6 C3.68 6 2.36 6 1 6 C0.67 4.02 0.34 2.04 0 0 Z " fill="#46DFAE" transform="translate(148,123)"/>
<path d="M0 0 C1.32 0 2.64 0 4 0 C6.125 4.625 6.125 4.625 5 8 C4.01 7.67 3.02 7.34 2 7 C1.67 7.66 1.34 8.32 1 9 C1.875 3.25 1.875 3.25 3 1 C2.01 0.67 1.02 0.34 0 0 Z " fill="#304662" transform="translate(119,76)"/>
<path d="M0 0 C0.33 0.66 0.66 1.32 1 2 C0.01 3.485 0.01 3.485 -1 5 C-1.66 5 -2.32 5 -3 5 C-3 6.98 -3 8.96 -3 11 C-3.66 11 -4.32 11 -5 11 C-5.33 10.34 -5.66 9.68 -6 9 C-6.66 8.67 -7.32 8.34 -8 8 C-6.71034824 6.62437146 -5.37310707 5.29233607 -4 4 C-3.34 4 -2.68 4 -2 4 C-1.34 2.68 -0.68 1.36 0 0 Z " fill="#0E282E" transform="translate(110,85)"/>
<path d="M0 0 C0.33 0 0.66 0 1 0 C1 3.96 1 7.92 1 12 C-2.875 7.25 -2.875 7.25 -4 5 C-2.68 5 -1.36 5 0 5 C0 3.35 0 1.7 0 0 Z " fill="#49875F" transform="translate(95,86)"/>
<path d="M0 0 C0.33 0 0.66 0 1 0 C1 3.63 1 7.26 1 11 C1.99 11 2.98 11 4 11 C4 11.66 4 12.32 4 13 C2.68 13.99 1.36 14.98 0 16 C0 10.72 0 5.44 0 0 Z " fill="#30446A" transform="translate(99,72)"/>
<path d="M0 0 C0.66 0 1.32 0 2 0 C2 4.29 2 8.58 2 13 C2.99 12.67 3.98 12.34 5 12 C5 12.99 5 13.98 5 15 C3.68 14.67 2.36 14.34 1 14 C0.67 9.38 0.34 4.76 0 0 Z " fill="#22355A" transform="translate(99,69)"/>
<path d="M0 0 C0.66 0.33 1.32 0.66 2 1 C0.12050295 4.57104439 -1.17053157 6.54744301 -5 8 C-3.8141763 4.62496331 -2.72426311 2.35277269 0 0 Z " fill="#2C436C" transform="translate(120,98)"/>
<path d="M0 0 C1.65 0 3.3 0 5 0 C5.33 0.99 5.66 1.98 6 3 C5.01 3 4.02 3 3 3 C2.67 3.66 2.34 4.32 2 5 C1.01 4.01 0.02 3.02 -1 2 C-0.67 1.34 -0.34 0.68 0 0 Z " fill="#4EE0AC" transform="translate(154,140)"/>
<path d="M0 0 C-2.97 2.475 -2.97 2.475 -6 5 C-6 3.35 -6 1.7 -6 0 C-3.50907189 -1.24546405 -2.58919267 -0.7767578 0 0 Z " fill="#06183F" transform="translate(113,98)"/>
<path d="M0 0 C0.66 0 1.32 0 2 0 C0.52307692 6.52307692 0.52307692 6.52307692 -2.125 8.9375 C-2.74375 9.288125 -3.3625 9.63875 -4 10 C-3.6875 8.0625 -3.6875 8.0625 -3 6 C-2.01 5.67 -1.02 5.34 0 5 C0 3.35 0 1.7 0 0 Z " fill="#65956E" transform="translate(118,71)"/>
<path d="M0 0 C0 3.52809907 -0.64276511 4.46815512 -3 7 C-3.99 7 -4.98 7 -6 7 C-6 6.34 -6 5.68 -6 5 C-5.34 5 -4.68 5 -4 5 C-4 4.34 -4 3.68 -4 3 C-2 1.375 -2 1.375 0 0 Z " fill="#0A183A" transform="translate(114,73)"/>
<path d="M0 0 C2.95409701 1.37154504 5.44008376 2.98863724 8 5 C7.67 5.66 7.34 6.32 7 7 C3.00003714 5.66667905 2.16217663 3.5042173 0 0 Z " fill="#0A3627" transform="translate(83,85)"/>
<path d="M0 0 C0.66 0.33 1.32 0.66 2 1 C1.67 1.66 1.34 2.32 1 3 C0.34 3 -0.32 3 -1 3 C-1.66 4.32 -2.32 5.64 -3 7 C-3.66 7 -4.32 7 -5 7 C-3.70700306 4.11562221 -2.34058637 2.12780579 0 0 Z " fill="#2E406B" transform="translate(109,75)"/>
<path d="M0 0 C0.33 0 0.66 0 1 0 C3.125 7.625 3.125 7.625 2 11 C1.34 11 0.68 11 0 11 C0 7.37 0 3.74 0 0 Z " fill="#071F25" transform="translate(97,56)"/>
</svg>
